<svg xmlns="http://www.w3.org/2000/svg" xmlns:xlink="http://www.w3.org/1999/xlink" width="500" zoomAndPan="magnify" viewBox="0 0 375.12 187.5" height="500" preserveAspectRatio="xMidYMid meet" version="1.0"><defs><clipPath id="177ac62f2d"><path d="M 0.0585938 0 L 374.0625 0 L 374.0625 187 L 0.0585938 187 Z M 0.0585938 0 " clip-rule="nonzero"/></clipPath><clipPath id="efe3a7fe57"><path d="M 54.460938 0 L 320 0 L 320 187 L 54.460938 187 Z M 54.460938 0 " clip-rule="nonzero"/></clipPath></defs><g clip-path="url(#177ac62f2d)"><path fill="#ffffff" d="M 0.0585938 0 L 374.0625 0 L 374.0625 374.003906 L 0.0585938 374.003906 Z M 0.0585938 0 " fill-opacity="1" fill-rule="nonzero"/><path fill="#ffffff" d="M 0.0585938 0 L 374.0625 0 L 374.0625 374.003906 L 0.0585938 374.003906 Z M 0.0585938 0 " fill-opacity="1" fill-rule="nonzero"/></g><g clip-path="url(#efe3a7fe57)"><path fill="#ff4753" d="M 201.484375 196.402344 L 206.324219 196.402344 C 254.453125 196.402344 293.519531 157.828125 293.519531 110.464844 C 293.519531 63.105469 254.453125 25.9375 206.324219 25.9375 L 119.480469 25.9375 L 201.574219 68.902344 L 201.574219 196.316406 Z M 80.328125 222.148438 L 175.617188 273.730469 L 175.617188 84.371094 L 80.328125 34.371094 Z M 201.484375 316.871094 L 54.460938 237.261719 L 54.460938 0.367188 L 206.324219 0.367188 C 268.707031 0.367188 319.386719 49.75 319.386719 110.378906 C 319.386719 171.007812 268.617188 221.886719 206.324219 221.886719 L 201.484375 221.886719 Z M 201.484375 316.871094 " fill-opacity="1" fill-rule="nonzero"/></g></svg>