<svg xmlns="http://www.w3.org/2000/svg" xmlns:xlink="http://www.w3.org/1999/xlink" width="1000" zoomAndPan="magnify" viewBox="0 0 750 187.499995" height="250" preserveAspectRatio="xMidYMid meet" version="1.0"><defs><clipPath id="373be8d969"><path d="M 708 76 L 749 76 L 749 133 L 708 133 Z M 708 76 " clip-rule="nonzero"/></clipPath><clipPath id="d25136617b"><path d="M 0.996094 28.4375 L 109 28.4375 L 109 158.589844 L 0.996094 158.589844 Z M 0.996094 28.4375 " clip-rule="nonzero"/></clipPath></defs><path fill="#373d40" d="M 157.070312 130.96875 L 157.070312 59.128906 L 180.664062 58.667969 C 199.886719 58.320312 209.441406 67.765625 209.441406 79.394531 C 209.441406 95.167969 195.511719 103.6875 179.625 103.6875 C 176.972656 103.6875 173.640625 103.457031 171.105469 103.226562 L 171.105469 130.976562 L 157.058594 130.976562 Z M 171.117188 65.335938 L 171.117188 96.652344 C 173.304688 97.117188 176.070312 97.347656 178.941406 97.347656 C 187.917969 97.347656 194.480469 91.132812 194.480469 81.457031 C 194.480469 71.78125 188.382812 65.335938 178.476562 65.335938 L 171.105469 65.335938 Z M 171.117188 65.335938 " fill-opacity="1" fill-rule="nonzero"/><path fill="#373d40" d="M 216.496094 130.96875 L 216.496094 79.730469 L 228.808594 76.851562 L 228.808594 87.09375 L 229.386719 87.09375 C 232.382812 80.183594 237.210938 76.503906 243.320312 76.503906 C 245.96875 76.503906 248.5 77.199219 250.6875 78.460938 L 248.386719 90.089844 C 246.316406 87.789062 244.011719 86.410156 240.898438 86.410156 C 235.484375 86.410156 230.660156 91.941406 228.808594 103.214844 L 228.808594 130.96875 Z M 216.496094 130.96875 " fill-opacity="1" fill-rule="nonzero"/><path fill="#373d40" d="M 252.335938 105.296875 C 252.335938 88.945312 263.503906 76.511719 280.421875 76.511719 C 297.339844 76.511719 306.667969 88.144531 306.667969 103.917969 C 306.667969 119.695312 295.5 132.703125 278.582031 132.703125 C 261.664062 132.703125 252.335938 121.074219 252.335938 105.296875 Z M 293.4375 106.105469 C 293.4375 90.101562 287.109375 82.960938 279.042969 82.960938 C 270.980469 82.960938 265.574219 90.332031 265.574219 103.226562 C 265.574219 119.117188 271.90625 126.371094 279.851562 126.371094 C 287.800781 126.371094 293.4375 118.886719 293.4375 106.105469 Z M 293.4375 106.105469 " fill-opacity="1" fill-rule="nonzero"/><path fill="#373d40" d="M 316.550781 130.96875 L 316.550781 84.917969 L 308.148438 84.917969 L 308.148438 78.238281 L 316.550781 78.238281 L 316.550781 75.703125 C 316.550781 58.320312 324.152344 50.71875 337.042969 50.71875 C 342.457031 50.71875 347.402344 52.671875 351.542969 55.207031 L 347.632812 63.609375 C 345.445312 59.929688 341.878906 57.164062 337.726562 57.164062 C 332.09375 57.164062 328.980469 61.421875 328.980469 70.171875 L 328.980469 78.230469 L 344.175781 78.230469 L 344.175781 84.90625 L 328.980469 84.90625 L 328.980469 130.960938 L 316.550781 130.960938 Z M 316.550781 130.96875 " fill-opacity="1" fill-rule="nonzero"/><path fill="#373d40" d="M 393.078125 126.59375 C 388.589844 130.390625 382.835938 132.695312 374.425781 132.695312 C 358.886719 132.695312 347.949219 121.871094 347.949219 105.289062 C 347.949219 88.703125 359.347656 76.503906 374.3125 76.503906 C 389.273438 76.503906 396.414062 85.601562 396.414062 98.148438 C 396.414062 99.640625 396.296875 101.945312 395.949219 103.785156 L 361.304688 103.785156 C 361.304688 115.992188 367.054688 126.007812 378.222656 126.007812 C 382.710938 126.007812 386.738281 124.28125 390.082031 121.398438 L 393.078125 126.585938 Z M 383.753906 97.925781 C 383.753906 88.714844 380.640625 82.84375 373.847656 82.84375 C 368.433594 82.84375 363.261719 88.480469 361.640625 97.925781 Z M 383.753906 97.925781 " fill-opacity="1" fill-rule="nonzero"/><path fill="#373d40" d="M 405.585938 119.800781 C 409.148438 123.828125 414.101562 126.363281 420.316406 126.363281 C 426.878906 126.363281 431.367188 123.945312 431.367188 119.222656 C 431.367188 115.308594 428.371094 112.660156 419.390625 109.777344 C 408.339844 106.214844 401.78125 101.839844 401.78125 92.511719 C 401.78125 83.875 409.148438 76.503906 422.503906 76.503906 C 429.527344 76.503906 435.972656 77.996094 441.273438 80.878906 L 437.589844 89.398438 C 434.027344 85.484375 428.84375 82.835938 422.746094 82.835938 C 416.300781 82.835938 413.070312 85.253906 413.070312 89.167969 C 413.070312 92.847656 415.488281 95.152344 424.238281 98.148438 C 436.898438 102.523438 442.660156 106.78125 442.660156 115.414062 C 442.660156 124.742188 434.941406 132.683594 420.441406 132.683594 C 413.417969 132.683594 406.972656 131.074219 401.90625 128.308594 L 405.585938 119.789062 Z M 405.585938 119.800781 " fill-opacity="1" fill-rule="nonzero"/><path fill="#373d40" d="M 450.695312 119.800781 C 454.257812 123.828125 459.210938 126.363281 465.425781 126.363281 C 471.988281 126.363281 476.476562 123.945312 476.476562 119.222656 C 476.476562 115.308594 473.480469 112.660156 464.5 109.777344 C 453.449219 106.214844 446.890625 101.839844 446.890625 92.511719 C 446.890625 83.875 454.257812 76.503906 467.613281 76.503906 C 474.636719 76.503906 481.082031 77.996094 486.382812 80.878906 L 482.699219 89.398438 C 479.136719 85.484375 473.953125 82.835938 467.855469 82.835938 C 461.410156 82.835938 458.179688 85.253906 458.179688 89.167969 C 458.179688 92.847656 460.597656 95.152344 469.347656 98.148438 C 482.007812 102.523438 487.769531 106.78125 487.769531 115.414062 C 487.769531 124.742188 480.050781 132.683594 465.550781 132.683594 C 458.527344 132.683594 452.082031 131.074219 447.015625 128.308594 L 450.695312 119.789062 Z M 450.695312 119.800781 " fill-opacity="1" fill-rule="nonzero"/><path fill="#373d40" d="M 494.28125 60.277344 C 494.28125 55.785156 497.847656 52.21875 502.105469 52.21875 C 506.363281 52.21875 509.929688 55.785156 509.929688 60.277344 C 509.929688 64.765625 506.363281 68.214844 502.105469 68.214844 C 497.847656 68.214844 494.28125 64.652344 494.28125 60.277344 Z M 495.890625 130.96875 L 495.890625 79.730469 L 508.320312 76.851562 L 508.320312 130.96875 Z M 495.890625 130.96875 " fill-opacity="1" fill-rule="nonzero"/><path fill="#373d40" d="M 516.289062 105.296875 C 516.289062 88.945312 527.453125 76.511719 544.371094 76.511719 C 561.289062 76.511719 570.617188 88.144531 570.617188 103.917969 C 570.617188 119.695312 559.449219 132.703125 542.53125 132.703125 C 525.613281 132.703125 516.289062 121.074219 516.289062 105.296875 Z M 557.390625 106.105469 C 557.390625 90.101562 551.058594 82.960938 542.996094 82.960938 C 534.929688 82.960938 529.523438 90.332031 529.523438 103.226562 C 529.523438 119.117188 535.855469 126.371094 543.804688 126.371094 C 551.753906 126.371094 557.390625 118.886719 557.390625 106.105469 Z M 557.390625 106.105469 " fill-opacity="1" fill-rule="nonzero"/><path fill="#373d40" d="M 612.558594 130.96875 L 612.558594 98.386719 C 612.558594 90.214844 609.90625 86.640625 603.460938 86.640625 C 598.972656 86.640625 594.25 90.207031 591.253906 94.011719 L 591.253906 130.96875 L 578.941406 130.96875 L 578.941406 79.730469 L 591.253906 76.851562 L 591.253906 85.371094 L 591.832031 85.371094 C 597.585938 79.730469 603.347656 76.503906 610.253906 76.503906 C 620.609375 76.503906 624.984375 84.222656 624.984375 94.003906 L 624.984375 130.960938 L 612.558594 130.960938 Z M 612.558594 130.96875 " fill-opacity="1" fill-rule="nonzero"/><path fill="#373d40" d="M 663.976562 130.96875 L 663.976562 123.710938 L 663.515625 123.710938 C 659.71875 129.351562 654.417969 132.695312 646.710938 132.695312 C 639.003906 132.695312 632.433594 126.941406 632.433594 118.527344 C 632.433594 107.589844 642.789062 102.058594 661.097656 97.683594 L 663.976562 96.992188 L 663.976562 94.570312 C 663.976562 86.285156 661.675781 82.941406 654.882812 82.941406 C 650.046875 82.941406 644.753906 86.167969 640.382812 92.269531 L 635.3125 84.550781 C 642.800781 78.683594 649.015625 76.496094 657.761719 76.496094 C 671 76.496094 676.414062 83.171875 676.414062 98.484375 L 676.414062 130.949219 L 663.988281 130.949219 Z M 663.976562 102.648438 L 661.210938 103.457031 C 649.46875 106.90625 644.976562 111.175781 644.976562 116.003906 C 644.976562 120.832031 648.203125 123.605469 652.347656 123.605469 C 657.183594 123.605469 661.328125 120.492188 663.976562 116.699219 Z M 663.976562 102.648438 " fill-opacity="1" fill-rule="nonzero"/><path fill="#373d40" d="M 687.535156 130.96875 L 687.535156 53.714844 L 699.847656 50.71875 L 699.847656 130.96875 Z M 687.535156 130.96875 " fill-opacity="1" fill-rule="nonzero"/><g clip-path="url(#373be8d969)"><path fill="#373d40" d="M 711.9375 119.800781 C 715.503906 123.828125 720.457031 126.363281 726.667969 126.363281 C 733.230469 126.363281 737.71875 123.945312 737.71875 119.222656 C 737.71875 115.308594 734.722656 112.660156 725.746094 109.777344 C 714.695312 106.214844 708.132812 101.839844 708.132812 92.511719 C 708.132812 83.875 715.503906 76.503906 728.855469 76.503906 C 735.878906 76.503906 742.324219 77.996094 747.625 80.878906 L 743.945312 89.398438 C 740.378906 85.484375 735.195312 82.835938 729.097656 82.835938 C 722.652344 82.835938 719.425781 85.253906 719.425781 89.167969 C 719.425781 92.847656 721.84375 95.152344 730.589844 98.148438 C 743.25 102.523438 749.011719 106.78125 749.011719 115.414062 C 749.011719 124.742188 741.292969 132.683594 726.792969 132.683594 C 719.769531 132.683594 713.324219 131.074219 708.257812 128.308594 L 711.9375 119.789062 Z M 711.9375 119.800781 " fill-opacity="1" fill-rule="nonzero"/></g><g clip-path="url(#d25136617b)"><path fill="#ff4753" d="M 60.492188 158.316406 L 0.996094 125.71875 L 0.996094 28.707031 L 62.445312 28.707031 C 87.679688 28.707031 108.210938 48.925781 108.210938 73.765625 C 108.210938 98.609375 87.679688 119.433594 62.445312 119.433594 L 60.492188 119.433594 Z M 11.46875 119.511719 L 50.019531 140.632812 L 50.019531 63.082031 L 11.46875 42.652344 Z M 60.492188 108.960938 L 62.445312 108.960938 C 81.910156 108.960938 97.738281 93.175781 97.738281 73.765625 C 97.738281 54.359375 81.910156 39.183594 62.445312 39.183594 L 27.289062 39.183594 L 60.492188 56.789062 L 60.492188 108.96875 Z M 60.492188 108.960938 " fill-opacity="1" fill-rule="nonzero"/></g></svg>